<svg width="51" height="50" viewBox="0 0 51 50" fill="none" xmlns="http://www.w3.org/2000/svg">
<path d="M25.0115 14.1782C28.9217 14.1782 32.1006 10.9993 32.1006 7.0891C32.1006 3.18153 28.9191 0 25.0115 0C21.1012 0 17.9224 3.17889 17.9224 7.0891C17.9224 10.9967 21.1038 14.1782 25.0115 14.1782ZM25.0115 2.02996C27.8022 2.02996 30.0728 4.30055 30.0728 7.0913C30.0728 9.88205 27.8022 12.1526 25.0115 12.1526C22.2207 12.1526 19.9501 9.88205 19.9501 7.0913C19.9501 4.30055 22.2207 2.02996 25.0115 2.02996Z" fill="#3A391B"/>
<path d="M49.5977 33.1057C49.141 32.2266 48.3674 31.577 47.4195 31.2787L41.4581 29.3988L34.9181 17.6893C34.3003 16.583 33.1386 15.8675 31.866 15.8015C31.499 15.717 31.1637 15.6748 30.8389 15.6748H19.1796C18.8549 15.6748 18.5169 15.717 18.1526 15.8015C16.88 15.8675 15.7182 16.583 15.1004 17.6893L8.56049 29.3988L2.59902 31.2787C1.65382 31.577 0.880196 32.2265 0.420807 33.1057C-0.0359573 33.9849 -0.125723 34.9909 0.175262 35.9361C0.666351 37.4885 2.08942 38.5341 3.71581 38.5341C4.09337 38.5341 4.47091 38.476 4.83528 38.3625L12.2038 36.039C13.112 35.7539 13.8671 35.1387 14.3291 34.307L15.3984 32.3902L15.6809 36.3585L6.7359 39.144C6.71478 39.1519 6.69365 39.1572 6.67253 39.1651C4.87981 39.8568 3.67586 41.8529 3.67586 44.1288C3.67586 47.004 5.61908 49.3433 8.00851 49.3433H42.0228C44.4122 49.3433 46.3554 47.004 46.3554 44.1288C46.3554 41.8529 45.1515 39.8595 43.3588 39.1651C43.3377 39.1572 43.3165 39.1493 43.2954 39.144L34.3504 36.3585L34.6329 32.3902L35.7022 34.3044C36.1669 35.1361 36.9193 35.7486 37.8275 36.0364L45.196 38.3598C45.5604 38.4734 45.9353 38.5314 46.3128 38.5314C47.9419 38.5314 49.365 37.4885 49.8534 35.9361C50.1517 34.9909 50.0646 33.9849 49.6078 33.1057H49.5977ZM47.9106 35.3262C47.636 36.1948 46.6776 36.7071 45.7958 36.4272L38.4273 34.1038C38.0154 33.9744 37.6722 33.6945 37.4636 33.317L34.7363 28.4351C34.5171 28.0444 34.0683 27.8411 33.63 27.9414C33.1917 28.0391 32.8722 28.4114 32.8405 28.8602L32.2623 37.0183C32.228 37.4883 32.5237 37.9186 32.9725 38.0586L42.6486 41.0711C43.6334 41.4724 44.3225 42.7239 44.3225 44.1312C44.3225 45.8579 43.2664 47.3179 42.0176 47.3179H32.2587C31.5537 46.6763 30.598 45.9345 29.3703 45.2057C31.7148 44.448 34.6851 44.0123 37.7239 44.0123C38.2836 44.0123 38.7377 43.5582 38.7377 42.9985C38.7377 42.4387 38.2836 41.9846 37.7239 41.9846C36.1793 41.9846 30.9699 42.1377 26.9331 43.9754C24.0869 42.7529 20.2557 41.7971 15.2028 41.7971C14.643 41.7971 14.1889 42.2513 14.1889 42.811C14.1889 43.3707 14.643 43.8249 15.2028 43.8249C21.9381 43.8249 26.3 45.6017 28.9428 47.3205H8.00552C6.75667 47.3205 5.70057 45.8605 5.70057 44.1337C5.70057 42.7265 6.38706 41.4724 7.3745 41.0737L17.0506 38.0612C17.4995 37.9213 17.7952 37.4909 17.7608 37.0209L17.1826 28.8628C17.1509 28.4166 16.8288 28.0417 16.3931 27.944C15.9549 27.8463 15.506 28.047 15.2869 28.4377L12.5595 33.3195C12.3482 33.6971 12.0077 33.9743 11.5958 34.1037L4.22733 36.4271C3.34285 36.707 2.38442 36.1948 2.10983 35.3261C1.97518 34.8958 2.01478 34.439 2.22336 34.0403C2.43194 33.6417 2.7831 33.346 3.2108 33.2113L9.55528 31.21C9.80083 31.1334 10.0094 30.9645 10.1361 30.7374L16.8737 18.6765C17.1642 18.1537 17.7054 17.8369 18.3153 17.8236C18.3919 17.8236 18.4711 17.8104 18.545 17.792C18.7906 17.7286 18.9939 17.6995 19.1813 17.6995H30.8407C31.0281 17.6995 31.2314 17.7286 31.477 17.792C31.5509 17.8104 31.6301 17.821 31.7067 17.8236C32.3192 17.8368 32.8579 18.1537 33.1509 18.6765L39.8885 30.7374C40.0153 30.9618 40.2212 31.1308 40.4694 31.21L46.8139 33.2113C47.2442 33.3459 47.5954 33.6416 47.8013 34.0403C48.0099 34.439 48.0495 34.8958 47.9122 35.3261L47.9106 35.3262Z" fill="#3A391B"/>
</svg>
