<svg width="30" height="34" viewBox="0 0 30 34" fill="none" xmlns="http://www.w3.org/2000/svg">
<path fill-rule="evenodd" clip-rule="evenodd" d="M3.2651 22.5222C6.27815 27.7433 12.2328 33.0481 18.5681 33.4093C19.2839 33.4505 19.9077 33.3021 20.5287 32.9435L23.6503 31.1409C24.3936 30.8785 24.9129 30.3097 25.1094 29.5458C25.3059 28.7805 25.1493 28.0083 24.5997 27.4436L21.0096 23.7614C20.2429 22.9741 19.0971 22.7501 18.1436 23.2997L16.286 24.3728C15.5757 24.7822 14.7664 24.7946 14.0451 24.4058C12.2769 23.4509 10.1719 21.0245 9.09349 19.1559C8.01358 17.2873 6.96525 14.251 7.02297 12.2423C7.04633 11.422 7.46263 10.7282 8.17157 10.3174L10.0291 9.24432C10.9826 8.69474 11.3605 7.59148 11.0623 6.53218L9.66916 1.58195C9.45483 0.823553 8.86402 0.301447 8.10425 0.0898474C7.34448 -0.121752 6.59291 0.0431343 5.99251 0.555606L2.87092 2.35821C2.25128 2.7168 1.81025 3.1826 1.48736 3.82285C-1.36632 9.49025 0.250824 17.2997 3.26524 22.5193L3.2651 22.5222ZM17.8165 3.77897C17.271 3.50693 17.0512 2.84471 17.3232 2.29925C17.5609 1.82248 18.0995 1.59442 18.5955 1.72769C22.499 2.76912 25.6083 5.29844 27.4809 8.54102C29.3535 11.7849 29.9897 15.7434 28.9455 19.6437C28.7875 20.2331 28.1816 20.5835 27.5922 20.4268C27.0027 20.2702 26.651 19.6629 26.809 19.0735C27.6965 15.7609 27.158 12.4002 25.5697 9.64823C23.9801 6.89623 21.3409 4.74865 18.0269 3.86124C17.9568 3.83926 17.8868 3.81315 17.8194 3.7788L17.8165 3.77897ZM16.9097 8.01906C16.3202 7.86105 15.9699 7.25514 16.1265 6.66571C16.2845 6.07628 16.8904 5.72593 17.4799 5.88255C20.2305 6.619 22.4248 8.40511 23.7477 10.6956C25.0721 12.9846 25.5214 15.7777 24.7836 18.5311C24.627 19.1205 24.0197 19.4708 23.4303 19.3142C22.8408 19.1562 22.4905 18.5503 22.6471 17.9595C23.2269 15.7928 22.8752 13.5974 21.8378 11.8014C20.8019 10.0016 19.0762 8.60015 16.908 8.01895L16.9097 8.01906ZM15.7954 12.1779C15.206 12.0199 14.8556 11.414 15.0122 10.8232C15.1689 10.2337 15.7762 9.88339 16.3656 10.04C17.9717 10.4701 19.2508 11.5115 20.0218 12.8456L20.0575 12.9143C20.8008 14.2374 21.0468 15.8394 20.625 17.4154C20.467 18.0048 19.861 18.3552 19.2716 18.1985C18.6822 18.0405 18.3305 17.4346 18.4885 16.8438C18.755 15.8464 18.6039 14.8351 18.1409 14.0025L18.1106 13.9531C17.6229 13.1095 16.8123 12.4486 15.7955 12.1765L15.7954 12.1779Z" fill="#1F1D1D"/>
</svg>
