<svg width="40" height="29" viewBox="0 0 40 29" fill="none" xmlns="http://www.w3.org/2000/svg">
<path d="M31.5818 11.9812C31.2277 11.9812 30.8878 12.0096 30.5479 12.0521C30.5904 11.6414 30.6187 11.2165 30.6187 10.7916C30.6187 4.84348 25.7753 0 19.8271 0C14.3038 0 9.72945 4.17786 9.10631 9.54534C4.06456 9.70113 0 13.8648 0 18.9632C0 24.1466 4.22034 28.3811 9.41788 28.3811H31.5818C36.0995 28.3811 39.7675 24.6989 39.7675 20.1812C39.7675 15.6634 36.0995 11.9812 31.5818 11.9812ZM23.9908 18.5808L20.7335 21.0026C20.4786 21.1867 20.1812 21.2858 19.8838 21.2858C19.6005 21.2858 19.3031 21.2009 19.0624 21.0167L15.6917 18.595C15.0544 18.1418 14.9128 17.2638 15.366 16.6265C15.8192 15.9892 16.6973 15.8475 17.3346 16.3007L18.4675 17.108V11.7688C18.4675 10.9899 19.1048 10.3526 19.8838 10.3526C20.6627 10.3526 21.3 10.9899 21.3 11.7688V17.0513L22.2913 16.3149C22.9286 15.8475 23.8067 15.975 24.2741 16.5981C24.7414 17.2354 24.614 18.1135 23.9908 18.5808Z" fill="#1F1D1D"/>
</svg>
