<svg width="46" height="57" viewBox="0 0 46 57" fill="none" xmlns="http://www.w3.org/2000/svg">
<path d="M40.6008 43.8453H39.1873C40.8923 42.8282 42.3544 41.4078 43.4012 39.6718C44.7793 37.3921 45.3293 34.6894 44.9494 32.0592L43.7258 23.5566C43.664 23.1248 43.2908 22.8048 42.8512 22.8048L22.0336 22.8026L28.0035 18.6159C28.4011 18.3375 28.496 17.7895 28.2156 17.3927L27.7054 16.676L29.7019 15.2753C29.8962 15.3191 30.0972 15.3432 30.296 15.3432C30.8238 15.3432 31.3583 15.1876 31.8221 14.861C32.3765 14.473 32.7342 13.9097 32.8734 13.3003C32.9772 13.3113 33.081 13.32 33.1826 13.32C33.7259 13.32 34.2537 13.1534 34.7065 12.8378C35.2608 12.4498 35.6186 11.8865 35.7578 11.2771C35.8594 11.2881 35.9632 11.2947 36.0648 11.2947C36.5926 11.2947 37.1271 11.139 37.5909 10.8124C38.1695 10.4069 38.5538 9.80189 38.6731 9.1092C38.6819 9.06098 38.6885 9.01275 38.693 8.96453L39.5565 8.35955C39.7817 8.20173 40.0954 8.25434 40.2566 8.47792C40.4509 8.75192 40.7425 8.93386 41.076 8.99085C41.4094 9.04784 41.7452 8.97332 42.0212 8.77822L43.8632 7.48494C44.6649 6.92378 44.8548 5.81899 44.2894 5.02333L41.246 0.746734C40.9722 0.360942 40.5636 0.104495 40.0931 0.0255409C39.6249 -0.0533739 39.1523 0.051845 38.7658 0.323653L36.9239 1.62132C36.6478 1.81421 36.4645 2.10356 36.4071 2.43454C36.3496 2.76553 36.4247 3.09872 36.6213 3.37273C36.7803 3.59632 36.7273 3.90758 36.502 4.0676L35.6363 4.67477C35.5899 4.66381 35.5435 4.65285 35.4949 4.64408C34.797 4.52571 34.0947 4.68354 33.5161 5.08906C32.9772 5.46609 32.6106 6.01844 32.4648 6.64974C31.8376 6.5774 31.1839 6.72426 30.6295 7.11225C30.0928 7.48928 29.724 8.03944 29.5782 8.67074C28.9289 8.59402 28.2818 8.75842 27.7429 9.13544C27.1643 9.54096 26.78 10.146 26.6607 10.8386C26.6518 10.8869 26.6452 10.9351 26.6408 10.9833L24.6465 12.3818L24.1363 11.6651C24.0016 11.4744 23.7962 11.3472 23.5643 11.3078C23.3324 11.2683 23.0961 11.3209 22.9039 11.4568L6.72645 22.8028H2.21436C1.77486 22.8028 1.40161 23.1228 1.33975 23.5546L0.116194 32.0572C-0.26147 34.6876 0.288462 37.3925 1.6644 39.6698C2.71348 41.4036 4.17552 42.8262 5.87831 43.8433L4.46483 43.8455C2.24964 43.8455 0.447456 45.6342 0.447456 47.8328V52.1313C0.447456 54.3321 2.24964 56.1208 4.46483 56.1208H40.5989C42.8163 56.1208 44.6185 54.3321 44.6185 52.1335V47.835C44.6185 45.6342 42.816 43.8453 40.6008 43.8453ZM37.522 5.49844C38.4033 4.88027 38.7059 3.74921 38.3105 2.79789L39.788 1.76105C39.7924 1.75667 39.8013 1.75886 39.8057 1.76324L42.8491 6.03984C42.8535 6.04642 42.8513 6.05299 42.8469 6.05737L41.3693 7.09422C41.0535 6.81145 40.6648 6.62294 40.2363 6.5506C39.64 6.44977 39.0371 6.58348 38.5424 6.93201L38.231 7.15121L37.2106 5.71982L37.522 5.49844ZM34.1739 7.08543C34.2136 6.85527 34.3417 6.65361 34.5339 6.51771C34.684 6.4125 34.8607 6.35769 35.0418 6.35769C35.0926 6.35769 35.1434 6.36208 35.1942 6.37085C35.4261 6.4103 35.6293 6.53744 35.7662 6.72814L36.7866 8.15953C36.9235 8.35023 36.9765 8.58259 36.9368 8.81496C36.897 9.04512 36.7689 9.24678 36.5768 9.38267C36.3846 9.51858 36.1505 9.57119 35.9164 9.53173C35.6845 9.49227 35.4813 9.36514 35.3444 9.17443L34.324 7.74304C34.1871 7.54795 34.1341 7.3156 34.1739 7.08543ZM31.2895 9.11085C31.3292 8.88069 31.4573 8.67903 31.6495 8.54314C31.8041 8.43573 31.9808 8.38312 32.1574 8.38312C32.4357 8.38312 32.7074 8.51245 32.8796 8.75357L33.9 10.185C34.1805 10.5795 34.0855 11.1275 33.688 11.4081C33.4958 11.544 33.2595 11.5966 33.0276 11.5572C32.7957 11.5177 32.5925 11.3906 32.4556 11.1999L31.4352 9.76847C31.3005 9.57338 31.2497 9.34103 31.2895 9.11085ZM28.4029 11.1341C28.4426 10.9039 28.5707 10.7023 28.7629 10.5664C28.9131 10.4612 29.0897 10.4064 29.2708 10.4064C29.3216 10.4064 29.3724 10.4107 29.4232 10.4195C29.6551 10.459 29.8583 10.5861 29.9952 10.7768L31.0156 12.2082C31.1525 12.3989 31.2055 12.6312 31.1658 12.8636C31.126 13.0938 30.9979 13.2954 30.8058 13.4313C30.6136 13.5672 30.3795 13.6198 30.1454 13.5804C29.9135 13.5409 29.7103 13.4138 29.5734 13.2231L28.553 11.7917C28.4161 11.5966 28.3631 11.3643 28.4029 11.1341ZM27.1086 12.8L28.129 14.2314L26.6868 15.2441L25.6664 13.8127L27.1086 12.8ZM23.204 13.3919L26.2628 17.6882L19.0473 22.7473L15.9884 18.451L23.204 13.3919ZM14.5467 19.4636L16.9231 22.802H15.8409L13.8245 19.9699L14.5467 19.4636ZM12.3823 20.9826L13.6766 22.802H9.7873L12.3823 20.9826ZM2.98046 24.5556H42.0851L42.4627 27.186H2.60277L2.98046 24.5556ZM2.34881 28.9396H42.7165L42.8424 29.8164H2.22254L2.34881 28.9396ZM1.86514 32.3065L1.97556 31.5371C2.05065 31.5568 2.13016 31.57 2.21409 31.57H42.8515C42.9354 31.57 43.0149 31.5568 43.09 31.5371L43.2004 32.3065C43.2071 32.3525 43.2115 32.4007 43.2181 32.4468H1.8474C1.85403 32.4007 1.85851 32.3525 1.86514 32.3065ZM3.17922 38.7709C2.33995 37.3812 1.86514 35.8051 1.78118 34.2006H43.2842C43.2003 35.8052 42.7254 37.3813 41.8861 38.7709C39.9934 41.9011 36.5326 43.8454 32.8529 43.8454H27.6253C29.6924 42.0699 30.0922 39.2423 30.1077 39.1239C30.1408 38.8762 30.0657 38.6263 29.9023 38.4377C29.7388 38.2492 29.5003 38.1374 29.2486 38.133C29.1448 38.1309 26.998 38.1067 25.0766 39.2225C24.6769 37.048 23.2612 35.4478 23.1905 35.3711C23.0227 35.1848 22.7841 35.0774 22.5324 35.0774C22.2806 35.0774 22.0421 35.1848 21.8742 35.3711C21.8035 35.4478 20.3878 37.048 19.9881 39.2225C18.0667 38.1067 15.9222 38.1287 15.8161 38.133C15.5644 38.1374 15.3281 38.2492 15.1624 38.4377C14.999 38.6263 14.9239 38.8761 14.957 39.1239C14.9725 39.2444 15.3723 42.0699 17.4394 43.8454H12.2118C8.53235 43.8454 5.07149 41.9012 3.17856 38.7709H3.17922ZM26.4597 42.5302C25.8104 43.0848 25.0286 43.4048 24.3351 43.5911C24.6487 42.9773 24.9424 42.2321 25.0882 41.4035C25.1589 41.3334 25.2317 41.2654 25.309 41.1997C26.1704 40.4654 27.2636 40.141 28.0741 39.9985C27.8069 40.7723 27.3189 41.7959 26.4597 42.5302ZM23.4163 40.3382C23.4163 41.4649 22.9525 42.4996 22.5329 43.2032C22.1133 42.4996 21.6495 41.4649 21.6495 40.3382C21.6495 39.2116 22.1133 38.1769 22.5329 37.4733C22.9525 38.1769 23.4163 39.2116 23.4163 40.3382ZM19.9776 41.4035C20.1234 42.2343 20.4171 42.9818 20.7329 43.5955C20.0416 43.4114 19.2598 43.0892 18.6061 42.5302C17.7448 41.7959 17.2567 40.7701 16.9916 39.9941C17.8 40.1366 18.891 40.4588 19.7589 41.1997C19.834 41.2654 19.907 41.3334 19.9776 41.4035ZM42.8516 52.1333C42.8516 53.3652 41.8423 54.367 40.6011 54.367H4.46474C3.22354 54.367 2.21421 53.3652 2.21421 52.1333V47.8348C2.21421 46.6007 3.22354 45.5989 4.46474 45.5989H40.5988C41.84 45.5989 42.8493 46.6007 42.8493 47.8326L42.8516 52.1333Z" fill="#3A391B"/>
</svg>
