<svg width="140" height="116" viewBox="0 0 140 116" fill="none" xmlns="http://www.w3.org/2000/svg">
<path d="M102.346 27.1581C101.88 23.6961 97.4763 21.5909 92.8001 21.2868C85.8933 20.836 79.1097 22.4224 71.2226 26.1969C70.7675 26.4159 70.6612 26.4499 70.1402 26.1692C69.2917 25.7482 67.901 25.1528 67.078 24.7169C66.7676 24.5531 66.9547 24.2256 67.2141 24.0555C74.3081 19.4134 81.4446 14.28 90.1569 14.3651C90.8353 14.0971 90.0655 14.0801 89.3084 13.9079C88.2409 13.6654 85.4807 13.6187 83.7604 13.9546C82.9289 14.1184 82.5483 14.2375 82.123 14.3736C75.9838 16.3236 72.4793 18.5691 65.4768 23.4176C65.0366 23.7217 64.8643 23.7791 64.1924 23.5345C57.5492 21.1231 44.4649 18.9158 38.8063 23.8896C36.5075 25.7248 36.4714 29.3165 38.6574 31.2473C39.6802 32.1511 41.4452 33.7098 46.3681 33.4908C52.1032 33.2356 58.7826 29.9034 65.3088 25.3973C65.632 25.157 66.0041 25.1145 66.3657 25.274C67.3268 25.6759 68.2838 26.0863 69.2173 26.5669C69.5511 26.7391 69.834 26.7859 69.8808 26.9965C69.9445 27.2899 69.5363 27.6089 69.3725 27.728C65.8064 30.0926 62.8016 33.3547 61.0218 37.2717C59.5524 40.4955 58.6869 44.4465 60.3753 47.7128C61.7214 50.3177 64.3434 52.5059 67.8266 52.4166C70.5208 52.3464 72.9727 50.8621 74.0848 48.591C76.2369 43.6278 73.9296 36.8825 69.7829 34.1734C68.2008 33.1399 68.4879 33.7672 69.4108 34.5476C71.0673 35.9511 72.2412 37.8884 73.0024 39.9064C73.8998 42.2923 74.087 45.682 72.5453 47.8212C71.2056 49.6011 68.8324 50.4305 66.6378 49.986C65.3981 49.7457 64.2115 48.8292 63.3949 47.8064C61.1791 45.0143 61.2812 41.1377 62.3721 37.8076C63.7033 33.865 66.5719 30.3606 70.2316 28.2213C70.4251 28.1235 70.6718 28.0278 70.9653 27.9789C70.9653 27.9789 71.5628 27.8024 72.1582 28.0554C76.5686 29.9268 84.3664 33.9033 90.4801 34.1713C101.034 34.6348 102.635 29.2973 102.346 27.1538V27.1581ZM63.6565 25.055C61.7618 26.2862 59.7522 27.3218 57.747 28.3978C53.9894 30.418 49.8215 31.7513 45.4941 31.847H45.4473C39.1103 31.8427 37.709 26.4223 42.5893 23.9896C45.7875 22.3947 53.6811 20.9444 63.6203 24.2575C64.0286 24.3936 64.0839 24.7764 63.6565 25.0528V25.055ZM89.4785 32.8443C84.9278 32.4956 78.3676 30.1309 72.49 27.4026C72.3369 27.3324 72.3284 26.9603 72.473 26.8731C80.2091 22.2714 91.6412 22.2012 95.4987 23.4324C103.175 25.8822 99.6581 33.6247 89.4785 32.8443Z" fill="#FDFDF0"/>
<path d="M73.0726 8.77463L73.113 8.75336C74.2251 8.16007 74.7185 6.97348 74.6887 5.77839C74.6525 3.4116 72.7068 0.553588 70.4102 0.0708735C69.8552 -0.0418308 69.2534 -0.0354513 68.7069 0.202716C61.4342 4.20691 65.5554 12.0686 73.0726 8.77463ZM68.6494 2.03788C70.9205 1.34039 72.928 4.07082 73.0088 6.15266C73.0449 7.04366 72.694 7.93466 71.8924 8.3876L71.8541 8.40887C66.2508 10.9203 63.2269 4.79808 68.6516 2.03576H68.6494V2.03788Z" fill="#FDFDF0"/>
<path d="M0.261559 90.5092H0.391275C2.3434 93.6777 3.81919 94.8068 6.11793 94.8068C8.41667 94.8068 9.76275 93.633 9.76275 91.4215C9.76275 90.4241 9.50119 89.5565 8.93767 88.9037C8.37414 88.2104 7.2875 87.3428 5.68413 86.3434C1.99465 84.0872 0.780424 82.135 0.780424 79.1409C0.780424 75.2792 3.94678 72.3276 8.67823 72.3276C10.2837 72.3276 11.8467 72.5892 13.3225 73.0655V77.2313H13.1907C11.3257 75.7109 10.0668 75.192 8.54852 75.192C6.42202 75.192 5.03342 76.4063 5.03342 78.3159C5.03342 80.2254 5.98822 81.4397 8.93979 83.1749C12.7143 85.3886 14.1029 87.3407 14.1029 90.4645C14.1029 95.1067 10.8069 97.7116 6.16259 97.7116C3.90637 97.7116 2.29874 97.4501 0 96.7994L0.261559 90.5071V90.5092Z" fill="#FDFDF0"/>
<path d="M38.8724 90.6836C38.8724 93.4608 39.2191 95.196 40.0867 97.4097H34.662V94.7197C33.5349 95.3704 32.3186 96.2805 31.0172 97.3671C30.3664 97.4969 29.8455 97.5394 29.4117 97.5394C24.7695 97.5394 22.1646 95.0663 22.1646 91.3789C22.1646 88.6442 23.5978 86.7793 27.719 84.9122C29.4117 84.1318 31.7551 83.177 34.662 82.0479V80.5721C34.662 77.4929 32.9268 75.8002 30.0198 75.8002C28.1549 75.8002 26.2878 76.4063 24.3357 77.5801L24.2485 77.4929L25.7668 73.2399C27.5467 72.6339 29.2819 72.3276 31.0193 72.3276C36.0974 72.3276 38.8746 75.0623 38.8746 80.0511V90.6836H38.8724ZM28.0677 86.2987C27.1129 87.3832 26.6366 88.5996 26.6366 89.9435C26.6366 92.5889 28.3718 93.935 31.8444 93.935C32.7566 93.935 33.6668 93.8053 34.6641 93.5012V86.2987H28.0677Z" fill="#FDFDF0"/>
<path d="M77.5148 81.3095C77.5148 77.8391 75.9093 76.2314 73.1321 76.2314C71.5692 76.2314 70.3103 76.7524 68.4453 78.141C68.49 78.7045 68.5325 79.2255 68.5325 79.6147V90.8532C68.5325 93.3285 68.8345 95.1062 69.5745 97.4071H63.2822C64.0201 95.1934 64.3242 93.4156 64.3242 90.8532V81.3499C64.3242 77.922 62.9356 76.2293 60.2009 76.2293C58.6379 76.2293 57.2068 76.7928 55.2972 78.1814V90.8511C55.2972 93.3263 55.5566 95.1466 56.3817 97.405H50.0469C50.7848 95.1913 51.0889 93.4135 51.0889 90.8511V79.2234C51.0889 76.7928 50.8294 74.9704 50.1766 72.7142H55.5588C55.3844 73.7115 55.2993 74.7535 55.2993 75.9231V76.9651L56.773 74.6663C57.7724 73.2331 59.6799 72.3229 61.9808 72.3229C65.0621 72.3229 67.4055 73.9731 68.2284 77.0948L69.7914 74.7089C70.7037 73.1459 72.6558 72.3208 74.912 72.3208C78.9056 72.3208 81.7253 74.8386 81.7253 79.5679V90.849C81.7253 93.3242 81.9847 95.1445 82.8098 97.4028H76.475C77.2129 95.1891 77.517 93.4114 77.517 90.849V81.3031V81.3095H77.5148Z" fill="#FDFDF0"/>
<path d="M107.841 90.6836C107.841 93.4608 108.188 95.196 109.055 97.4097H103.631V94.7197C102.504 95.3704 101.287 96.2805 99.9859 97.3671C99.3352 97.4969 98.8142 97.5394 98.3804 97.5394C93.7383 97.5394 91.1333 95.0663 91.1333 91.3789C91.1333 88.6442 92.5666 86.7793 96.6877 84.9122C98.3804 84.1318 100.724 83.177 103.631 82.0479V80.5721C103.631 77.4929 101.896 75.8002 98.9886 75.8002C97.1236 75.8002 95.2566 76.4063 93.3045 77.5801L93.2173 77.4929L94.7356 73.2399C96.5155 72.6339 98.2507 72.3276 99.988 72.3276C105.066 72.3276 107.843 75.0623 107.843 80.0511V90.6836H107.841ZM97.0365 86.2987C96.0817 87.3832 95.6053 88.5996 95.6053 89.9435C95.6053 92.5889 97.3405 93.935 100.813 93.935C101.725 93.935 102.636 93.8053 103.633 93.5012V86.2987H97.0365Z" fill="#FDFDF0"/>
<path d="M119.849 70.939C119.849 67.0773 119.547 64.9954 118.807 62.954L124.97 61.7397C124.406 64.3 124.057 68.6828 124.057 73.3249V77.0994C125.576 75.2345 126.922 73.9777 128.006 73.3249C129.091 72.6721 130.394 72.3254 131.826 72.3254C135.645 72.3254 138.422 74.8432 138.422 79.3982V90.8536C138.422 93.416 138.681 95.1491 139.421 97.4075H133.129C133.954 95.1513 134.214 93.3289 134.214 90.8536V81.395C134.214 77.8799 132.481 76.2297 129.571 76.2297C127.836 76.2297 126.188 76.7932 124.062 78.3115V90.8515C124.062 93.3267 124.321 95.147 125.146 97.4054H118.811C119.549 95.1917 119.853 93.4139 119.853 90.8515V70.9347L119.849 70.939Z" fill="#FDFDF0"/>
<path d="M39.0679 110.669L37.5092 115.369H36.5821L35.421 111.892L34.2387 115.369H33.3051L31.7485 110.669H32.6544L33.8219 114.242L35.0361 110.669H35.842L37.0308 114.261L38.2322 110.669H39.0679Z" fill="#FDFDF0"/>
<path d="M44.131 114.637V115.369H40.6074V110.669H44.0375V111.401H41.4793V112.624H43.7483V113.342H41.4793V114.637H44.131Z" fill="#FDFDF0"/>
<path d="M45.896 110.669H46.7679V114.631H49.2261V115.369H45.896V110.669Z" fill="#FDFDF0"/>
<path d="M50.6935 110.669H51.5654V114.631H54.0215V115.369H50.6914V110.669H50.6935Z" fill="#FDFDF0"/>
<path d="M59.6672 110.669V115.369H58.9484L56.3562 112.188V115.369H55.4907V110.669H56.2095L58.8017 113.851V110.669H59.6672Z" fill="#FDFDF0"/>
<path d="M65.2536 114.637V115.369H61.73V110.669H65.16V111.401H62.6018V112.624H64.8708V113.342H62.6018V114.637H65.2536Z" fill="#FDFDF0"/>
<path d="M66.6655 114.872L66.9675 114.194C67.3439 114.496 67.9414 114.71 68.5177 114.71C69.2492 114.71 69.5576 114.449 69.5576 114.1C69.5576 113.086 66.7655 113.751 66.7655 112.006C66.7655 111.246 67.3694 110.602 68.6581 110.602C69.2216 110.602 69.8127 110.749 70.2232 111.019L69.9488 111.697C69.5257 111.448 69.0621 111.327 68.6538 111.327C67.9287 111.327 67.6331 111.61 67.6331 111.965C67.6331 112.965 70.4188 112.314 70.4188 114.041C70.4188 114.793 69.8085 115.438 68.5198 115.438C67.7883 115.438 67.0568 115.21 66.6677 114.874H66.6655V114.872Z" fill="#FDFDF0"/>
<path d="M71.7373 114.872L72.0393 114.194C72.4157 114.496 73.0132 114.71 73.5895 114.71C74.321 114.71 74.6293 114.449 74.6293 114.1C74.6293 113.086 71.8373 113.751 71.8373 112.006C71.8373 111.246 72.4412 110.602 73.7298 110.602C74.2934 110.602 74.8845 110.749 75.2949 111.019L75.0206 111.697C74.5974 111.448 74.1339 111.327 73.7256 111.327C73.0004 111.327 72.7049 111.61 72.7049 111.965C72.7049 112.965 75.4906 112.314 75.4906 114.041C75.4906 114.793 74.8803 115.438 73.5916 115.438C72.8601 115.438 72.1286 115.21 71.7394 114.874H71.7373V114.872Z" fill="#FDFDF0"/>
<path d="M84.1304 110.669V115.369H83.2585V113.355H80.8279V115.369H79.9561V110.669H80.8279V112.609H83.2585V110.669H84.1304Z" fill="#FDFDF0"/>
<path d="M85.8765 113.02C85.8765 111.629 86.9503 110.602 88.407 110.602C89.8636 110.602 90.9375 111.623 90.9375 113.02C90.9375 114.417 89.8636 115.438 88.407 115.438C86.9503 115.438 85.8765 114.411 85.8765 113.02ZM90.0593 113.02C90.0593 112.061 89.3533 111.368 88.407 111.368C87.4607 111.368 86.7547 112.059 86.7547 113.02C86.7547 113.981 87.4607 114.672 88.407 114.672C89.3533 114.672 90.0593 113.981 90.0593 113.02Z" fill="#FDFDF0"/>
<path d="M92.6323 113.321V110.669H93.5042V113.287C93.5042 114.255 93.9401 114.669 94.6993 114.669C95.4584 114.669 95.888 114.253 95.888 113.287V110.669H96.7471V113.321C96.7471 114.691 95.9752 115.435 94.6929 115.435C93.4106 115.435 92.6323 114.691 92.6323 113.321Z" fill="#FDFDF0"/>
<path d="M98.376 114.872L98.6779 114.194C99.0543 114.496 99.6519 114.71 100.228 114.71C100.96 114.71 101.268 114.449 101.268 114.1C101.268 113.086 98.4759 113.751 98.4759 112.006C98.4759 111.246 99.0798 110.602 100.369 110.602C100.932 110.602 101.523 110.749 101.934 111.019L101.659 111.697C101.236 111.448 100.773 111.327 100.364 111.327C99.6391 111.327 99.3435 111.61 99.3435 111.965C99.3435 112.965 102.129 112.314 102.129 114.041C102.129 114.793 101.519 115.438 100.23 115.438C99.4988 115.438 98.7673 115.21 98.3781 114.874L98.376 114.872Z" fill="#FDFDF0"/>
<path d="M107.367 114.637V115.369H103.843V110.669H107.273V111.401H104.715V112.624H106.984V113.342H104.715V114.637H107.367Z" fill="#FDFDF0"/>
</svg>
