<svg width="39" height="60" viewBox="0 0 39 60" fill="none" xmlns="http://www.w3.org/2000/svg">
<path d="M9.5332 59.3315C10.1185 59.3315 10.5926 58.8574 10.5926 58.272C10.6138 55.9678 10.6721 53.3219 9.89608 51.129C9.45112 49.8101 7.47797 50.4352 7.87787 51.77C8.2725 53.0174 8.47379 54.3099 8.47379 55.613V58.2722C8.47379 58.8575 8.94787 59.3315 9.5332 59.3315Z" fill="#3A391B"/>
<path d="M19.0676 48.7374C21.1679 48.7374 22.9716 47.4979 23.827 45.7207L31.4229 47.6197C33.5868 48.16 35.1865 50.014 35.409 52.2309L36.0234 58.3755C36.1771 59.75 38.2509 59.5567 38.1317 58.1636L37.5172 52.019C37.2074 48.9149 34.9641 46.3194 31.9367 45.5619L24.3408 43.6629C24.3435 43.586 24.3647 43.5145 24.3647 43.4351V40.7627C26.9178 39.0491 28.6023 36.1384 28.6023 32.8407V24.3653C28.6023 21.5844 23.8058 20.1277 19.0679 20.1277C14.33 20.1277 9.53354 21.5844 9.53354 24.3653V32.8407C9.53354 36.1381 11.218 39.0515 13.7712 40.7627V43.4351C13.7712 43.5119 13.7897 43.586 13.795 43.6629L6.19912 45.5619C3.17188 46.3194 0.92856 48.9123 0.618635 52.019L0.00417427 58.1636C-0.104418 59.5435 1.94027 59.7659 2.11243 58.3755L2.72689 52.2309C2.94936 50.0114 4.54908 48.1601 6.71293 47.6197L14.3088 45.7207C15.1643 47.4979 16.9674 48.7374 19.0676 48.7374ZM11.6514 32.8458V27.125C13.4921 28.1023 16.2863 28.6082 19.0676 28.6082C20.2012 28.6082 21.3215 28.5261 22.4022 28.3645C22.9822 28.2771 23.3795 27.7368 23.2921 27.1595C23.2047 26.5794 22.6564 26.1874 22.087 26.2696C21.1097 26.4152 20.0927 26.492 19.065 26.492C14.2473 26.492 11.6488 24.9876 11.6488 24.3732C11.6488 23.7588 14.247 22.2544 19.065 22.2544C23.8828 22.2544 26.4813 23.7588 26.4813 24.3732V32.8485C26.1105 42.6717 12.0231 42.6717 11.6495 32.8485L11.6514 32.8458ZM19.0676 42.3802C20.1826 42.3802 21.2501 42.1789 22.2459 41.824V43.4396C22.1373 47.6296 15.998 47.6296 15.8894 43.4396V41.824C16.8853 42.1789 17.9526 42.3802 19.0676 42.3802Z" fill="#3A391B"/>
<path d="M9.99875 16.7698C12.7135 18.5523 16.9404 18.1735 19.0673 17.0744C21.1888 18.163 25.4106 18.5576 28.1176 16.7777C28.1653 16.7513 32.9167 14.0604 32.9644 8.48753C32.9671 8.10349 32.7605 7.74591 32.4268 7.55525C29.1691 5.71183 25.9379 6.37928 24.2057 6.9964C23.872 5.16099 22.8338 2.05157 19.6052 0.146992C19.2741 -0.0489975 18.8609 -0.0489975 18.5299 0.146992C15.296 2.05129 14.2604 5.16594 13.9267 7.00115C12.1575 6.3708 8.94742 5.71928 5.70565 7.5547C5.36929 7.74274 5.16534 8.1003 5.16799 8.48698C5.21832 14.0622 9.96712 16.7528 9.99892 16.7691L9.99875 16.7698ZM30.8134 9.11015C30.4426 12.9638 27.1214 14.9078 27.0737 14.937C24.8516 16.2215 22.6215 15.9858 21.1755 15.5832C22.46 14.3728 24.0862 12.2567 24.3245 9.22407C25.3231 8.77382 28.006 7.82825 30.8134 9.11015ZM19.0673 2.32718C22.1979 4.56785 22.2456 8.43999 22.2456 8.47972C22.2456 11.7348 20.095 13.8007 19.0673 14.6031C18.0397 13.8006 15.8891 11.7347 15.8891 8.47972C15.8891 8.43999 15.9368 4.56785 19.0673 2.32718ZM13.81 9.22948C14.0484 12.2594 15.6746 14.3729 16.9591 15.5807C15.513 15.9806 13.2776 16.2163 11.0475 14.9265C11.0131 14.908 7.69448 12.9613 7.32102 9.11032C10.094 7.84696 12.7426 8.75275 13.81 9.22948Z" fill="#3A391B"/>
</svg>
