<svg width="28" height="21" viewBox="0 0 28 21" fill="none" xmlns="http://www.w3.org/2000/svg">
<path d="M1.05268 11.4761L26.8362 11.4761C27.1154 11.4761 27.3831 11.3652 27.5805 11.1678C27.7779 10.9703 27.8889 10.7026 27.8889 10.4234C27.8889 10.1442 27.7779 9.87646 27.5805 9.67904C27.3831 9.48163 27.1154 9.37072 26.8362 9.37072L1.05268 9.37073C0.773489 9.37073 0.505737 9.48163 0.308323 9.67905C0.110908 9.87646 8.54168e-07 10.1442 8.66371e-07 10.4234C8.78575e-07 10.7026 0.110908 10.9703 0.308323 11.1678C0.505737 11.3652 0.773489 11.4761 1.05268 11.4761Z" fill="white"/>
<path d="M26.8361 11.4761C27.0442 11.4759 27.2475 11.4141 27.4205 11.2984C27.5934 11.1827 27.7282 11.0184 27.8078 10.8261C27.8874 10.6339 27.9082 10.4224 27.8677 10.2183C27.8272 10.0142 27.727 9.82672 27.58 9.67951L18.1551 0.282639C17.9555 0.0966949 17.6916 -0.00453573 17.4189 0.000275567C17.1462 0.00508782 16.886 0.115562 16.6931 0.308431C16.5002 0.501299 16.3897 0.761501 16.3849 1.03422C16.3801 1.30693 16.4813 1.57086 16.6673 1.77042L26.0922 11.1673C26.2907 11.3628 26.5575 11.4736 26.8361 11.4761Z" fill="white"/>
<path d="M17.4535 20.8728C17.7184 20.8639 17.9697 20.7533 18.1553 20.564L27.5802 11.1672C27.7662 10.9676 27.8674 10.7037 27.8626 10.431C27.8578 10.1582 27.7473 9.89805 27.5544 9.70518C27.3615 9.51231 27.1013 9.40183 26.8286 9.39702C26.5559 9.39221 26.292 9.49344 26.0924 9.67938L16.6956 19.0763C16.5971 19.1735 16.5189 19.2893 16.4656 19.417C16.4122 19.5447 16.3848 19.6818 16.3848 19.8201C16.3848 19.9585 16.4122 20.0956 16.4656 20.2232C16.5189 20.3509 16.5971 20.4668 16.6956 20.564C16.7941 20.6645 16.9122 20.7437 17.0426 20.7968C17.1729 20.8499 17.3128 20.8758 17.4535 20.8728Z" fill="white"/>
</svg>
