<svg width="160" height="62" viewBox="0 0 160 62" fill="none" xmlns="http://www.w3.org/2000/svg">
<path d="M0.298785 32.8635H0.446964C2.67692 36.4829 4.36275 37.7728 6.98866 37.7728C9.61458 37.7728 11.1522 36.4319 11.1522 33.9056C11.1522 32.7663 10.8534 31.7752 10.2097 31.0295C9.56599 30.2376 8.3247 29.2465 6.49312 28.1048C2.27854 25.5274 0.891498 23.2975 0.891498 19.8772C0.891498 15.4659 4.5085 12.0942 9.91336 12.0942C11.7474 12.0942 13.5328 12.393 15.2186 12.9372V17.6959H15.068C12.9377 15.959 11.4996 15.3663 9.76518 15.3663C7.33603 15.3663 5.7498 16.7533 5.7498 18.9347C5.7498 21.1161 6.84049 22.5031 10.2121 24.4853C14.5239 27.0141 16.1101 29.244 16.1101 32.8125C16.1101 38.1153 12.3449 41.091 7.03968 41.091C4.46235 41.091 2.62591 40.7922 0 40.0489L0.298785 32.861V32.8635Z" fill="#623616"/>
<path d="M44.4047 33.0627C44.4047 36.2351 44.8006 38.2173 45.7917 40.7461H39.595V37.6732C38.3075 38.4165 36.918 39.4562 35.4314 40.6975C34.6881 40.8457 34.0929 40.8942 33.5974 40.8942C28.2946 40.8942 25.3188 38.0691 25.3188 33.857C25.3188 30.7331 26.9561 28.6027 31.6638 26.4699C33.5974 25.5784 36.2743 24.4878 39.595 23.1979V21.5121C39.595 17.9946 37.6128 16.061 34.2921 16.061C32.1618 16.061 30.029 16.7534 27.799 18.0942L27.6994 17.9946L29.4338 13.1363C31.467 12.444 33.4492 12.0942 35.4338 12.0942C41.2346 12.0942 44.4071 15.2181 44.4071 20.9169V33.0627H44.4047ZM32.0622 28.0538C30.9715 29.2926 30.4273 30.6821 30.4273 32.2173C30.4273 35.2392 32.4095 36.7768 36.3763 36.7768C37.4184 36.7768 38.4581 36.6287 39.5974 36.2813V28.0538H32.0622Z" fill="#623616"/>
<path d="M88.5472 22.3549C88.5472 18.3906 86.7132 16.5541 83.5408 16.5541C81.7553 16.5541 80.3173 17.1493 78.1869 18.7355C78.2379 19.3792 78.2865 19.9744 78.2865 20.4189V33.2569C78.2865 36.0845 78.6315 38.1152 79.4768 40.7436H72.2889C73.1319 38.2148 73.4792 36.1841 73.4792 33.2569V22.4011C73.4792 18.4853 71.893 16.5517 68.7691 16.5517C66.9837 16.5517 65.3489 17.1954 63.1675 18.7816V33.2545C63.1675 36.0821 63.4639 38.1614 64.4064 40.7412H57.1699C58.0128 38.2124 58.3602 36.1817 58.3602 33.2545V19.9719C58.3602 17.1954 58.0638 15.1136 57.3181 12.5363H63.4663C63.2671 13.6756 63.1699 14.8659 63.1699 16.2019V17.3922L64.8533 14.7663C65.995 13.129 68.174 12.0893 70.8023 12.0893C74.3221 12.0893 76.9991 13.9744 77.9392 17.5404L79.7246 14.8149C80.7667 13.0294 82.9966 12.0869 85.574 12.0869C90.1359 12.0869 93.357 14.963 93.357 20.3655V33.2521C93.357 36.0796 93.6533 38.159 94.5958 40.7387H87.3594C88.2023 38.21 88.5497 36.1792 88.5497 33.2521V22.3476V22.3549H88.5472Z" fill="#623616"/>
<path d="M123.189 33.0627C123.189 36.2351 123.585 38.2173 124.576 40.7461H118.38V37.6732C117.092 38.4165 115.703 39.4562 114.216 40.6975C113.473 40.8457 112.878 40.8942 112.382 40.8942C107.079 40.8942 104.104 38.0691 104.104 33.857C104.104 30.7331 105.741 28.6027 110.448 26.4699C112.382 25.5784 115.059 24.4878 118.38 23.1979V21.5121C118.38 17.9946 116.397 16.061 113.077 16.061C110.946 16.061 108.814 16.7534 106.584 18.0942L106.484 17.9946L108.218 13.1363C110.252 12.444 112.234 12.0942 114.218 12.0942C120.019 12.0942 123.192 15.2181 123.192 20.9169V33.0627H123.189ZM110.847 28.0538C109.756 29.2926 109.212 30.6821 109.212 32.2173C109.212 35.2392 111.194 36.7768 115.161 36.7768C116.203 36.7768 117.243 36.6287 118.382 36.2813V28.0538H110.847Z" fill="#623616"/>
<path d="M136.907 10.5085C136.907 6.09717 136.562 3.71903 135.716 1.38705L142.756 0C142.112 2.9247 141.714 7.93118 141.714 13.234V17.5457C143.448 15.4154 144.986 13.9798 146.225 13.234C147.464 12.4883 148.953 12.0923 150.588 12.0923C154.95 12.0923 158.123 14.9684 158.123 20.1717V33.2575C158.123 36.1846 158.419 38.1644 159.264 40.7441H152.077C153.019 38.1668 153.316 36.085 153.316 33.2575V22.4526C153.316 18.4373 151.336 16.5522 148.013 16.5522C146.03 16.5522 144.148 17.196 141.719 18.9304V33.2551C141.719 36.0826 142.015 38.1619 142.958 40.7417H135.721C136.564 38.213 136.911 36.1822 136.911 33.2551V10.5036L136.907 10.5085Z" fill="#623616"/>
<path d="M44.6282 55.8931L42.8477 61.2615H41.7885L40.4622 57.2898L39.1116 61.2615H38.0452L36.2671 55.8931H37.3019L38.6355 59.974L40.0226 55.8931H40.9432L42.3011 59.9959L43.6736 55.8931H44.6282Z" fill="#623616"/>
<path d="M50.4123 60.4264V61.262H46.3872V55.8936H50.3054V56.7292H47.3832V58.1259H49.9751V58.947H47.3832V60.4264H50.4123Z" fill="#623616"/>
<path d="M52.4282 55.8936H53.4242V60.4191H56.2323V61.262H52.4282V55.8936Z" fill="#623616"/>
<path d="M57.9082 55.8936H58.9041V60.4191H61.7098V61.262H57.9058V55.8936H57.9082Z" fill="#623616"/>
<path d="M68.1595 55.8936V61.262H67.3385L64.3773 57.628V61.262H63.3887V55.8936H64.2097L67.1709 59.5276V55.8936H68.1595Z" fill="#623616"/>
<path d="M74.5407 60.4264V61.262H70.5156V55.8936H74.4338V56.7292H71.5116V58.1259H74.1035V58.947H71.5116V60.4264H74.5407Z" fill="#623616"/>
<path d="M76.1538 60.6941L76.4988 59.9192C76.9287 60.2642 77.6113 60.5095 78.2696 60.5095C79.1052 60.5095 79.4575 60.2107 79.4575 59.8124C79.4575 58.6537 76.268 59.414 76.268 57.4197C76.268 56.5524 76.9579 55.8164 78.4299 55.8164C79.0736 55.8164 79.749 55.984 80.2178 56.2925L79.9044 57.0674C79.421 56.7832 78.8915 56.6448 78.4251 56.6448C77.5967 56.6448 77.2591 56.9678 77.2591 57.3735C77.2591 58.5152 80.4413 57.7719 80.4413 59.7444C80.4413 60.6043 79.7441 61.3403 78.272 61.3403C77.4364 61.3403 76.6008 61.0804 76.1562 60.6966H76.1538V60.6941Z" fill="#623616"/>
<path d="M81.9473 60.6941L82.2922 59.9192C82.7222 60.2642 83.4048 60.5095 84.0631 60.5095C84.8987 60.5095 85.2509 60.2107 85.2509 59.8124C85.2509 58.6537 82.0614 59.414 82.0614 57.4197C82.0614 56.5524 82.7513 55.8164 84.2234 55.8164C84.8671 55.8164 85.5424 55.984 86.0112 56.2925L85.6979 57.0674C85.2145 56.7832 84.6849 56.6448 84.2185 56.6448C83.3902 56.6448 83.0525 56.9678 83.0525 57.3735C83.0525 58.5152 86.2347 57.7719 86.2347 59.7444C86.2347 60.6043 85.5375 61.3403 84.0655 61.3403C83.2299 61.3403 82.3942 61.0804 81.9497 60.6966H81.9473V60.6941Z" fill="#623616"/>
<path d="M96.1044 55.8936V61.262H95.1084V58.9616H92.3319V61.262H91.3359V55.8936H92.3319V58.1089H95.1084V55.8936H96.1044Z" fill="#623616"/>
<path d="M98.0986 58.5783C98.0986 56.9897 99.3254 55.8164 100.989 55.8164C102.653 55.8164 103.88 56.9824 103.88 58.5783C103.88 60.1743 102.653 61.3403 100.989 61.3403C99.3254 61.3403 98.0986 60.167 98.0986 58.5783ZM102.877 58.5783C102.877 57.4828 102.07 56.6909 100.989 56.6909C99.9083 56.6909 99.1019 57.4804 99.1019 58.5783C99.1019 59.6763 99.9083 60.4658 100.989 60.4658C102.07 60.4658 102.877 59.6763 102.877 58.5783Z" fill="#623616"/>
<path d="M105.816 58.9227V55.8936H106.812V58.8838C106.812 59.9891 107.31 60.4628 108.177 60.4628C109.044 60.4628 109.535 59.9867 109.535 58.8838V55.8936H110.516V58.9227C110.516 60.4871 109.635 61.3373 108.17 61.3373C106.705 61.3373 105.816 60.4871 105.816 58.9227Z" fill="#623616"/>
<path d="M112.377 60.6941L112.722 59.9192C113.152 60.2642 113.835 60.5095 114.493 60.5095C115.329 60.5095 115.681 60.2107 115.681 59.8124C115.681 58.6537 112.492 59.414 112.492 57.4197C112.492 56.5524 113.181 55.8164 114.654 55.8164C115.297 55.8164 115.973 55.984 116.441 56.2925L116.128 57.0674C115.645 56.7832 115.115 56.6448 114.649 56.6448C113.82 56.6448 113.483 56.9678 113.483 57.3735C113.483 58.5152 116.665 57.7719 116.665 59.7444C116.665 60.6043 115.968 61.3403 114.496 61.3403C113.66 61.3403 112.824 61.0804 112.38 60.6966L112.377 60.6941Z" fill="#623616"/>
<path d="M122.648 60.4264V61.262H118.623V55.8936H122.541V56.7292H119.619V58.1259H122.21V58.947H119.619V60.4264H122.648Z" fill="#623616"/>
</svg>
