<svg width="47" height="51" viewBox="0 0 47 51" fill="none" xmlns="http://www.w3.org/2000/svg">
<path d="M13.9889 40.8978C15.1028 40.8978 16.2102 40.7666 17.282 40.5042C17.7133 40.3997 17.978 39.9639 17.8734 39.5348C17.7689 39.1034 17.3331 38.8388 16.904 38.9433C16.3392 39.0812 15.7611 39.1768 15.1808 39.2323V37.0288C15.1808 34.9898 14.0223 33.2177 12.328 32.3327C12.9661 31.7012 13.3641 30.8251 13.3641 29.8578C13.3641 27.9389 11.8032 26.3758 9.88205 26.3758C7.96312 26.3758 6.39997 27.9367 6.39997 29.8578C6.39997 30.8251 6.79576 31.7012 7.43613 32.3327C6.99142 32.5662 6.57563 32.8641 6.20426 33.2243C5.60612 33.8024 5.16366 34.4962 4.89236 35.2566C2.90894 33.0731 1.69933 30.1758 1.69933 27.0005C1.69933 21.5617 5.34371 16.7055 10.5622 15.1936C10.9158 15.0913 11.1559 14.76 11.1425 14.3909C11.1359 14.2108 11.1314 14.0529 11.1314 13.9062C11.1314 7.12892 16.6458 1.61423 23.4233 1.61423C30.2009 1.61423 35.7153 7.12863 35.7153 13.9062C35.7153 14.0507 35.7108 14.2108 35.7041 14.3909C35.6908 14.76 35.9287 15.0913 36.2845 15.1936C41.5032 16.7056 45.1474 21.5621 45.1474 27.0005C45.1474 30.1758 43.9378 33.0731 41.9543 35.2566C41.6831 34.4984 41.2406 33.8046 40.6469 33.2288C40.2755 32.8685 39.8575 32.5683 39.4106 32.3327C40.0487 31.7012 40.4467 30.8251 40.4467 29.8578C40.4467 27.9389 38.8858 26.3758 36.9646 26.3758C35.0457 26.3758 33.4826 27.9367 33.4826 29.8578C33.4826 30.8251 33.8784 31.7012 34.5187 32.3327C32.8266 33.2177 31.6659 34.9898 31.6659 37.0288V39.2323C30.9922 39.1679 30.3251 39.0478 29.6758 38.8744C29.2467 38.7587 28.8065 39.0144 28.693 39.4436C28.5796 39.8727 28.8331 40.313 29.2622 40.4264C30.4296 40.7377 31.6392 40.8956 32.8599 40.8956C40.5246 40.8956 46.7594 34.6608 46.7594 26.9962C46.7594 23.9232 45.7765 21.0124 43.9177 18.5756C42.2455 16.3831 39.922 14.7155 37.3249 13.8305C37.2871 6.19947 31.0679 0 23.4254 0C15.7853 0 9.56359 6.19719 9.52602 13.8305C6.92891 14.7133 4.60532 16.381 2.93322 18.5756C1.07434 21.0126 0.0915134 23.9232 0.0915134 26.9962C0.0915134 34.6608 6.32627 40.8956 13.9909 40.8956L13.9889 40.8978ZM8.00741 29.8559C8.00741 28.822 8.84793 27.9814 9.88188 27.9814C10.9158 27.9814 11.7563 28.822 11.7563 29.8559C11.7563 30.8899 10.9158 31.7304 9.8841 31.7304H9.88188H9.87965C8.84571 31.7304 8.00741 30.8899 8.00741 29.8559ZM9.87966 33.338H9.88188H9.8841C11.9186 33.3402 13.573 34.9946 13.573 37.0291V39.2838C10.7936 39.1904 8.24535 38.172 6.22881 36.5243C6.48007 34.7366 8.04322 33.3402 9.88211 33.3402L9.87966 33.338ZM35.0879 29.8559C35.0879 28.822 35.9285 27.9814 36.9624 27.9814C37.9964 27.9814 38.8369 28.822 38.8369 29.8559C38.8369 30.8899 37.9963 31.7304 36.9646 31.7304H36.9624H36.9602C35.9262 31.7304 35.0879 30.8899 35.0879 29.8559ZM36.9602 33.338H36.9624H36.9646C38.8013 33.3402 40.3667 34.7344 40.6179 36.5221C38.6012 38.1698 36.053 39.1904 33.2738 39.2816V37.0269C33.2738 34.9924 34.928 33.338 36.9626 33.3358L36.9602 33.338ZM17.1106 17.7622V20.5705C17.1106 21.0152 17.4708 21.3733 17.9133 21.3733H28.9291C29.3738 21.3733 29.7318 21.0131 29.7318 20.5705V17.7622C29.7318 15.2407 28.2442 13.0616 26.103 12.0523C26.9635 11.3029 27.5083 10.2001 27.5083 8.97263C27.5083 6.72019 25.676 4.88574 23.4214 4.88574C21.1689 4.88574 19.3345 6.71797 19.3345 8.97263C19.3345 10.2 19.8793 11.3029 20.7375 12.0523C18.5963 13.0617 17.1087 15.2431 17.1087 17.7622H17.1106ZM23.4211 6.49318C24.7885 6.49318 25.9004 7.60494 25.9004 8.97246C25.9004 10.3399 24.7886 11.4517 23.4211 11.4517C22.0536 11.4517 20.9418 10.34 20.9418 8.97246C20.9418 7.605 22.0536 6.49318 23.4211 6.49318ZM23.4211 13.057C26.0138 13.057 28.1239 15.1671 28.1239 17.7597V19.7654H18.7162V17.7597C18.7162 15.1671 20.8264 13.057 23.419 13.057H23.4211ZM46.0388 49.2297H34.5717C29.8578 46.2902 27.8947 40.7983 27.0807 36.6777C26.2957 32.7108 26.3936 29.2219 26.4381 28.3037L30.2448 23.3808C30.4315 23.1385 30.4649 22.8094 30.3315 22.5359C30.1959 22.2601 29.9157 22.0867 29.6111 22.0867H26.3691C26.1624 22.0867 25.9622 22.1667 25.8133 22.3091L23.6609 24.3658L21.2372 22.2801C21.0905 22.1556 20.9059 22.0845 20.7125 22.0845H17.5572C17.2571 22.0845 16.9814 22.2535 16.8435 22.5203C16.7056 22.7871 16.7279 23.1095 16.9013 23.3541L20.3989 28.2859C20.4434 29.1754 20.5479 32.6841 19.7563 36.6775C18.9425 40.7977 16.9791 46.2923 12.2653 49.2296H0.802726C0.358016 49.2296 0 49.5898 0 50.0323C0 50.477 0.360213 50.835 0.802726 50.835H46.041C46.4857 50.835 46.8437 50.4748 46.8437 50.0323C46.8437 49.5876 46.4835 49.2296 46.041 49.2296L46.0388 49.2297ZM14.9715 49.2297C16.4457 47.9556 17.7064 46.3613 18.7382 44.4713C19.9078 42.3256 20.7861 39.7952 21.3441 36.9489C22.2892 32.1328 22.0046 28.1168 21.9912 27.9483C21.9801 27.8016 21.9289 27.6615 21.8444 27.5436L19.1117 23.6925H20.4125L23.163 26.0583C23.4765 26.3273 23.9435 26.3162 24.2414 26.0294L26.6873 23.6924H27.9703L25.013 27.5169C24.9174 27.6415 24.8596 27.7904 24.8484 27.9483C24.8351 28.1173 24.5505 32.133 25.4955 36.9489C26.0536 39.7951 26.9319 42.3255 28.1015 44.4713C29.1332 46.3613 30.3939 47.9534 31.8682 49.2297L14.9715 49.2297Z" fill="#3A391B"/>
</svg>
