<svg width="53" height="40" viewBox="0 0 53 40" fill="none" xmlns="http://www.w3.org/2000/svg">
<path d="M26.3877 39.8798C11.8164 39.8798 0 28.0634 0 13.4922C0 12.9122 0.507455 12.4048 1.0874 12.4048H51.6879C52.2679 12.4048 52.7753 12.9122 52.7753 13.4922C52.7753 27.9909 40.9589 39.8798 26.3877 39.8798ZM2.24729 14.5796C2.82724 27.411 13.4113 37.705 26.3877 37.705C39.364 37.705 50.0206 27.411 50.6005 14.5796H2.24729Z" fill="#3A391B"/>
<path d="M41.3938 14.5797C41.1038 14.5797 40.7414 14.4347 40.5239 14.1447C40.1614 13.7098 40.2339 12.9848 40.6689 12.6224L48.1357 6.60539C48.6432 6.17043 49.0056 5.59047 49.0781 4.93803C49.1506 4.28558 48.9332 3.63314 48.5707 3.12569C47.7008 2.03828 46.1059 1.8933 45.091 2.76322L31.3897 14.0722C30.9547 14.4347 30.2298 14.3622 29.8673 13.9272C29.5049 13.4923 29.5774 12.7673 30.0123 12.4049L43.6411 1.02338C45.6709 -0.57148 48.6432 -0.281506 50.238 1.74831C51.0355 2.69073 51.3979 3.92313 51.2529 5.15552C51.108 6.38791 50.528 7.47531 49.5131 8.27274L42.0463 14.2897C41.8288 14.5072 41.6113 14.5797 41.3938 14.5797Z" fill="#3A391B"/>
</svg>
