<svg width="158" height="127" viewBox="0 0 158 127" fill="none" xmlns="http://www.w3.org/2000/svg">
<path d="M157.029 65.311C155.909 56.9856 145.318 51.9229 134.072 51.1916C117.462 50.1074 101.149 53.9224 82.1815 62.9996C81.0871 63.5263 80.8314 63.6081 79.5785 62.9331C77.5381 61.9205 74.1936 60.4886 72.2145 59.4403C71.4679 59.0465 71.9179 58.259 72.5418 57.8499C89.6018 46.6862 106.764 34.3413 127.716 34.5458C129.347 33.9015 127.496 33.8605 125.675 33.4463C123.108 32.8633 116.47 32.7508 112.333 33.5588C110.334 33.9526 109.418 34.239 108.395 34.5663C93.6315 39.2557 85.2038 44.656 68.3637 56.3157C67.3052 57.047 66.8909 57.1851 65.2749 56.597C49.2991 50.7978 17.8333 45.4896 4.22517 57.451C-1.30296 61.8643 -1.3899 70.5017 3.86719 75.1451C6.32698 77.3185 10.5715 81.067 22.4102 80.5403C36.2024 79.9266 52.2652 71.9131 67.9597 61.0767C68.737 60.4989 69.632 60.3966 70.5013 60.7801C72.8128 61.7467 75.1141 62.7336 77.3591 63.8894C78.162 64.3036 78.8421 64.4161 78.9546 64.9224C79.108 65.6281 78.1262 66.3952 77.7324 66.6816C69.1564 72.3682 61.9304 80.213 57.6501 89.6328C54.1164 97.3854 52.035 106.887 56.0955 114.742C59.3326 121.007 65.638 126.269 74.0146 126.054C80.4939 125.885 86.3902 122.316 89.0648 116.854C94.2401 104.918 88.6915 88.6969 78.7194 82.1818C74.9146 79.6965 75.605 81.2051 77.8245 83.0819C81.8082 86.457 84.6311 91.1158 86.4618 95.9689C88.6199 101.707 89.0699 109.858 85.3623 115.003C82.1406 119.283 76.4335 121.278 71.1559 120.209C68.1745 119.631 65.321 117.427 63.3572 114.967C58.0285 108.252 58.274 98.9298 60.8974 90.9215C64.0987 81.4403 70.9974 73.0126 79.7984 67.868C80.2638 67.6328 80.857 67.4026 81.5627 67.285C81.5627 67.285 82.9997 66.8606 84.4316 67.4691C95.0378 71.9693 113.791 81.5323 128.493 82.1767C153.873 83.2915 157.724 70.4556 157.029 65.3008V65.311ZM63.9862 60.2534C59.4297 63.2143 54.5971 65.7048 49.7747 68.2924C40.7384 73.1507 30.7152 76.3571 20.3084 76.5872H20.1959C4.95645 76.577 1.58639 63.5416 13.3228 57.6913C21.0141 53.8559 39.9969 50.3682 63.8993 58.3357C64.8812 58.663 65.0141 59.5835 63.9862 60.2483V60.2534ZM126.084 78.9856C115.141 78.1469 99.3642 72.4603 85.2294 65.8991C84.8612 65.7304 84.8407 64.8355 85.1885 64.6258C103.793 53.5593 131.285 53.3905 140.562 56.3515C159.023 62.2427 150.565 80.8624 126.084 78.9856Z" fill="#fff"/>
<path d="M86.6306 21.1016L86.7278 21.0505C89.4024 19.6237 90.5888 16.7702 90.5172 13.8962C90.4303 8.20438 85.751 1.3313 80.228 0.17044C78.8933 -0.100597 77.4461 -0.0852551 76.1318 0.487502C58.6422 10.117 68.553 29.0231 86.6306 21.1016ZM75.9937 4.9008C81.4553 3.22344 86.2829 9.78969 86.4772 14.7962C86.5641 16.9389 85.7203 19.0817 83.7924 20.1709L83.7004 20.2221C70.2252 26.2616 62.9532 11.5386 75.9988 4.89569H75.9937V4.9008Z" fill="#fff"/>
</svg>
